<svg width="371" height="64" viewBox="0 0 371 64" fill="none" xmlns="http://www.w3.org/2000/svg">
<path d="M10.9405 46.015L0.380527 34.025L10.9405 21.98H24.4705L13.9105 34.025L24.4705 46.015H10.9405ZM39.4206 33.53C39.4206 29.7167 40.209 26.325 41.7856 23.355C43.399 20.3483 45.6723 18.02 48.6056 16.37C51.539 14.6833 54.9123 13.84 58.7256 13.84C63.5656 13.84 67.6356 15.1417 70.9356 17.745C74.2356 20.3117 76.3623 23.8133 77.3156 28.25H65.7106C65.014 26.7833 64.0423 25.665 62.7956 24.895C61.5856 24.125 60.174 23.74 58.5606 23.74C56.0673 23.74 54.069 24.6383 52.5656 26.435C51.099 28.195 50.3656 30.56 50.3656 33.53C50.3656 36.5367 51.099 38.9383 52.5656 40.735C54.069 42.495 56.0673 43.375 58.5606 43.375C60.174 43.375 61.5856 42.99 62.7956 42.22C64.0423 41.45 65.014 40.3317 65.7106 38.865H77.3156C76.3623 43.3017 74.2356 46.8217 70.9356 49.425C67.6356 51.9917 63.5656 53.275 58.7256 53.275C54.9123 53.275 51.539 52.45 48.6056 50.8C45.6723 49.1133 43.399 46.785 41.7856 43.815C40.209 40.8083 39.4206 37.38 39.4206 33.53ZM96.7753 53.385C93.6953 53.385 90.927 52.7433 88.4703 51.46C86.0503 50.1767 84.1437 48.3433 82.7503 45.96C81.357 43.5767 80.6603 40.7717 80.6603 37.545C80.6603 34.355 81.357 31.5683 82.7503 29.185C84.1803 26.8017 86.1053 24.9683 88.5253 23.685C90.982 22.4017 93.7503 21.76 96.8303 21.76C99.9103 21.76 102.66 22.4017 105.08 23.685C107.537 24.9683 109.462 26.8017 110.855 29.185C112.285 31.5683 113 34.355 113 37.545C113 40.735 112.285 43.54 110.855 45.96C109.462 48.3433 107.537 50.1767 105.08 51.46C102.624 52.7433 99.8553 53.385 96.7753 53.385ZM96.7753 44.035C98.2787 44.035 99.5253 43.485 100.515 42.385C101.542 41.2483 102.055 39.635 102.055 37.545C102.055 35.455 101.542 33.86 100.515 32.76C99.5253 31.66 98.297 31.11 96.8303 31.11C95.3637 31.11 94.1353 31.66 93.1453 32.76C92.1553 33.86 91.6603 35.455 91.6603 37.545C91.6603 39.6717 92.137 41.285 93.0903 42.385C94.0437 43.485 95.272 44.035 96.7753 44.035ZM115.626 37.545C115.626 34.355 116.194 31.5683 117.331 29.185C118.504 26.8017 120.099 24.9683 122.116 23.685C124.133 22.4017 126.369 21.76 128.826 21.76C130.806 21.76 132.566 22.1817 134.106 23.025C135.683 23.8317 136.911 24.95 137.791 26.38V12.3H148.626V53H137.791V48.71C136.948 50.14 135.756 51.2767 134.216 52.12C132.676 52.9633 130.861 53.385 128.771 53.385C126.314 53.385 124.078 52.7433 122.061 51.46C120.081 50.1767 118.504 48.3433 117.331 45.96C116.194 43.54 115.626 40.735 115.626 37.545ZM137.846 37.545C137.846 35.565 137.296 34.0067 136.196 32.87C135.133 31.7333 133.813 31.165 132.236 31.165C130.623 31.165 129.284 31.7333 128.221 32.87C127.158 33.97 126.626 35.5283 126.626 37.545C126.626 39.525 127.158 41.1017 128.221 42.275C129.284 43.4117 130.623 43.98 132.236 43.98C133.813 43.98 135.133 43.4117 136.196 42.275C137.296 41.1383 137.846 39.5617 137.846 37.545ZM184.249 37.215C184.249 38.0583 184.194 38.9017 184.084 39.745H163.679C163.789 41.4317 164.247 42.6967 165.054 43.54C165.897 44.3467 166.961 44.75 168.244 44.75C170.041 44.75 171.324 43.9433 172.094 42.33H183.589C183.112 44.4567 182.177 46.3633 180.784 48.05C179.427 49.7 177.704 51.0017 175.614 51.955C173.524 52.9083 171.214 53.385 168.684 53.385C165.641 53.385 162.927 52.7433 160.544 51.46C158.197 50.1767 156.346 48.3433 154.989 45.96C153.669 43.5767 153.009 40.7717 153.009 37.545C153.009 34.3183 153.669 31.5317 154.989 29.185C156.309 26.8017 158.142 24.9683 160.489 23.685C162.872 22.4017 165.604 21.76 168.684 21.76C171.727 21.76 174.422 22.3833 176.769 23.63C179.116 24.8767 180.949 26.6733 182.269 29.02C183.589 31.33 184.249 34.0617 184.249 37.215ZM173.249 34.52C173.249 33.2 172.809 32.1733 171.929 31.44C171.049 30.67 169.949 30.285 168.629 30.285C167.309 30.285 166.227 30.6517 165.384 31.385C164.541 32.0817 163.991 33.1267 163.734 34.52H173.249ZM214.346 14.225V39.91C214.346 44.2733 213.154 47.61 210.771 49.92C208.424 52.23 205.179 53.385 201.036 53.385C196.636 53.385 193.116 52.1567 190.476 49.7C187.872 47.2433 186.571 43.705 186.571 39.085H197.241C197.277 42.1283 198.396 43.65 200.596 43.65C202.576 43.65 203.566 42.4033 203.566 39.91V14.225H214.346ZM231.56 27.59C232.77 25.83 234.236 24.4367 235.96 23.41C237.683 22.3833 239.535 21.87 241.515 21.87V33.365H238.49C236.143 33.365 234.401 33.8233 233.265 34.74C232.128 35.6567 231.56 37.2517 231.56 39.525V53H220.78V22.145H231.56V27.59ZM243.289 22.915V12.795H260.229V53H248.954V22.915H243.289ZM265.714 32.32C265.714 26.0133 266.997 21.045 269.564 17.415C272.131 13.785 276.164 11.97 281.664 11.97C287.164 11.97 291.197 13.785 293.764 17.415C296.367 21.045 297.669 26.0133 297.669 32.32C297.669 38.7 296.386 43.705 293.819 47.335C291.252 50.965 287.201 52.78 281.664 52.78C276.127 52.78 272.076 50.965 269.509 47.335C266.979 43.705 265.714 38.7 265.714 32.32ZM286.999 32.32C286.999 29.02 286.651 26.5083 285.954 24.785C285.257 23.025 283.827 22.145 281.664 22.145C279.501 22.145 278.071 23.025 277.374 24.785C276.677 26.5083 276.329 29.02 276.329 32.32C276.329 35.6933 276.659 38.26 277.319 40.02C278.016 41.7433 279.464 42.605 281.664 42.605C283.864 42.605 285.294 41.7433 285.954 40.02C286.651 38.26 286.999 35.6933 286.999 32.32ZM334.609 0.639999L319.924 63.615H309.529L324.214 0.639999H334.609ZM346.499 21.98H359.974L370.534 34.025L359.974 46.015H346.499L357.059 34.025L346.499 21.98Z" fill="white"/>
</svg>
